ISO-10303-21;
HEADER;
FILE_DESCRIPTION(('ViewDefinition [CoordinationView]'),'2;1');
FILE_NAME('','2026-09-16T17:30:08',(''),(''),'IfcOpenShell 0.8.5-1c5b825','IfcOpenShell 0.8.5-1c5b825','');
FILE_SCHEMA(('IFC4'));
ENDSEC;
DATA;
#1=IFCSIUNIT(*,.LENGTHUNIT.,.MILLI.,.METRE.);
#2=IFCUNITASSIGNMENT((#1));
#3=IFCCARTESIANPOINT((0.,0.,0.));
#4=IFCAXIS2PLACEMENT3D(#3,$,$);
#5=IFCGEOMETRICREPRESENTATIONCONTEXT('Model','Model',3,1.0000000000000001E-05,#4,$);
#6=IFCPROJECT('06WRQLBZz7BeGeu5rhZT0e',$,'\X2\041A043E043D044204430440\X0\ 2 test',$,$,$,$,(#5),#2);
#7=IFCRECTANGLEPROFILEDEF(.AREA.,$,$,300.,500.);
#8=IFCCARTESIANPOINT((0.,0.,0.));
#9=IFCAXIS2PLACEMENT3D(#8,$,$);
#10=IFCDIRECTION((0.,0.,1.));
#11=IFCEXTRUDEDAREASOLID(#7,#9,#10,3000.);
#12=IFCCARTESIANPOINTLIST3D(((0.,0.,0.),(1000.,0.,0.),(0.,1000.,0.)));
#13=IFCTRIANGULATEDFACESET(#12,$,.T.,((1,2,99)),$);
#14=IFCSHAPEREPRESENTATION(#5,'Body','Tessellation',(#13));
#15=IFCPRODUCTDEFINITIONSHAPE($,$,(#14));
#16=IFCCARTESIANPOINT((10000.,20000.,0.));
#17=IFCAXIS2PLACEMENT3D(#16,$,$);
#18=IFCLOCALPLACEMENT($,#17);
#19=IFCCARTESIANPOINT((0.,0.,0.));
#20=IFCAXIS2PLACEMENT3D(#19,$,$);
#21=IFCLOCALPLACEMENT(#18,#20);
#22=IFCBEAM('2PLNYvgJ1DhvPAWcmE7p8j',$,'\X2\04110430043B043A0430\X0\ 0',$,$,#21,#15,'0',$);
#23=IFCCARTESIANPOINT((2000.,0.,0.));
#24=IFCAXIS2PLACEMENT3D(#23,$,$);
#25=IFCLOCALPLACEMENT(#18,#24);
#26=IFCBEAM('05yidjPy92DBNmgXsB6vMW',$,'\X2\04110430043B043A0430\X0\ 1',$,$,#25,#15,'1',$);
#27=IFCCARTESIANPOINT((4000.,0.,0.));
#28=IFCAXIS2PLACEMENT3D(#27,$,$);
#29=IFCLOCALPLACEMENT(#18,#28);
#30=IFCBEAM('0rrqrXArr378ROKEIIMO5Q',$,'\X2\04110430043B043A0430\X0\ 2',$,$,#29,#15,'2',$);
#31=IFCCARTESIANPOINT((6000.,0.,0.));
#32=IFCAXIS2PLACEMENT3D(#31,$,$);
#33=IFCLOCALPLACEMENT(#18,#32);
#34=IFCBEAM('3BSf6YbeH6pgNrs1OqZzy7',$,'\X2\04110430043B043A0430\X0\ 3',$,$,#33,#15,'3',$);
#35=IFCPROPERTYSINGLEVALUE('\X2\041C04300440043A0430\X0\',$,IFCLABEL('\X2\042104420430043B044C\X0\ \X2\0421\X0\245'),$);
#36=IFCPROPERTYSET('2wd0RB3Hz7Zhs4qJWoW7$6',$,'Pset_\X2\041A043E043D044204430440\X0\',$,(#35));
#37=IFCRELDEFINESBYPROPERTIES('0gieCDtWn50BodMxssfvrC',$,$,$,(#22,#26,#30,#34),#36);
#38=IFCELEMENTASSEMBLY('3oNTveBLf4FB$WcQacXMVR',$,'Container',$,$,#18,$,$,$,$);
#39=IFCRELAGGREGATES('1NBsGz1vzE19gQ5ie$lUgU',$,$,$,#38,(#22,#26,#30,#34));
#40=IFCCARTESIANPOINT((14000.,23000.,0.));
#41=IFCAXIS2PLACEMENT3D(#40,$,$);
#42=IFCLOCALPLACEMENT($,#41);
#43=IFCELEMENTASSEMBLY('1vXzpfl_b4AQmfNXJq4cJc',$,'Own geometry',$,$,#42,#15,$,$,$);
#44=IFCOPENINGELEMENT('0QeZl$1Lz4RxfC4kRXER1A',$,'Must not render',$,$,#18,#15,$,$);
ENDSEC;
END-ISO-10303-21;
