ISO-10303-21;
HEADER;
FILE_DESCRIPTION(('ViewDefinition [CoordinationView]'),'2;1');
FILE_NAME('','2026-09-16T17:09:55',(''),(''),'IfcOpenShell 0.8.5-1c5b825','IfcOpenShell 0.8.5-1c5b825','');
FILE_SCHEMA(('IFC4'));
ENDSEC;
DATA;
#1=IFCSIUNIT(*,.LENGTHUNIT.,.MILLI.,.METRE.);
#2=IFCUNITASSIGNMENT((#1));
#3=IFCCARTESIANPOINT((0.,0.,0.));
#4=IFCAXIS2PLACEMENT3D(#3,$,$);
#5=IFCGEOMETRICREPRESENTATIONCONTEXT('Model','Model',3,1.0000000000000001E-05,#4,$);
#6=IFCPROJECT('3sqTPXzJH1eeUN8o4te729',$,'\X2\041A043E043D044204430440\X0\ 2 test',$,$,$,$,(#5),#2);
#7=IFCRECTANGLEPROFILEDEF(.AREA.,$,$,300.,500.);
#8=IFCCARTESIANPOINT((0.,0.,0.));
#9=IFCAXIS2PLACEMENT3D(#8,$,$);
#10=IFCDIRECTION((0.,0.,1.));
#11=IFCEXTRUDEDAREASOLID(#7,#9,#10,3000.);
#12=IFCSHAPEREPRESENTATION(#5,'Body','SweptSolid',(#11));
#13=IFCPRODUCTDEFINITIONSHAPE($,$,(#12));
#14=IFCCARTESIANPOINT((10000.,20000.,0.));
#15=IFCAXIS2PLACEMENT3D(#14,$,$);
#16=IFCLOCALPLACEMENT($,#15);
#17=IFCCARTESIANPOINT((0.,0.,0.));
#18=IFCAXIS2PLACEMENT3D(#17,$,$);
#19=IFCLOCALPLACEMENT(#16,#18);
#20=IFCBEAM('1vkCu6jU11YR$$P9qTox9F',$,'\X2\04110430043B043A0430\X0\ 0',$,$,#19,#13,'0',$);
#21=IFCCARTESIANPOINT((2000.,0.,0.));
#22=IFCAXIS2PLACEMENT3D(#21,$,$);
#23=IFCLOCALPLACEMENT(#16,#22);
#24=IFCBEAM('3PWmlx7F1FRv4_7LwSweyf',$,'\X2\04110430043B043A0430\X0\ 1',$,$,#23,#13,'1',$);
#25=IFCCARTESIANPOINT((4000.,0.,0.));
#26=IFCAXIS2PLACEMENT3D(#25,$,$);
#27=IFCLOCALPLACEMENT(#16,#26);
#28=IFCBEAM('1ki9wzTvL9AQJ7xYycz5Y9',$,'\X2\04110430043B043A0430\X0\ 2',$,$,#27,#13,'2',$);
#29=IFCCARTESIANPOINT((6000.,0.,0.));
#30=IFCAXIS2PLACEMENT3D(#29,$,$);
#31=IFCLOCALPLACEMENT(#16,#30);
#32=IFCBEAM('3L_n2OzB19a8XFgyVtQXIW',$,'\X2\04110430043B043A0430\X0\ 3',$,$,#31,#13,'3',$);
#33=IFCPROPERTYSINGLEVALUE('\X2\041C04300440043A0430\X0\',$,IFCLABEL('\X2\042104420430043B044C\X0\ \X2\0421\X0\245'),$);
#34=IFCPROPERTYSET('2U_eYfHxH88Rze7DNwvpAi',$,'Pset_\X2\041A043E043D044204430440\X0\',$,(#33));
#35=IFCRELDEFINESBYPROPERTIES('2INC44igPAwwE4lYfBw_mk',$,$,$,(#20,#24,#28,#32),#34);
#36=IFCELEMENTASSEMBLY('39vG3Ln1HChgv4G1bpzNW6',$,'Container',$,$,#16,$,$,$,$);
#37=IFCRELAGGREGATES('1caxBh2_vFpA7DaPtzznrU',$,$,$,#36,(#20,#24,#28,#32));
#38=IFCCARTESIANPOINT((14000.,23000.,0.));
#39=IFCAXIS2PLACEMENT3D(#38,$,$);
#40=IFCLOCALPLACEMENT($,#39);
#41=IFCELEMENTASSEMBLY('0gkzWqzX15LRvv00d$hQSE',$,'Own geometry',$,$,#40,#13,$,$,$);
#42=IFCOPENINGELEMENT('3A89SPKWbClOTzuOHrManm',$,'Must not render',$,$,#16,#13,$,$);
ENDSEC;
END-ISO-10303-21;
